<svg width="225" height="96" viewBox="0 0 225 96" fill="none" xmlns="http://www.w3.org/2000/svg">
<path d="M202.608 67.7217V20.1884L196.974 20.9466V73.4806H209.489V67.7217H202.608Z" fill="#111111"/>
<path d="M187.446 22.3197V67.7222H194.327V73.4812H181.812V23.1685L187.446 22.3197Z" fill="#111111"/>
<path fill-rule="evenodd" clip-rule="evenodd" d="M169.398 66.47H173.536L174.285 73.4808H179.72L173.359 24.4735L169.56 25.0686L163.664 73.4808H168.7L169.398 66.47ZM172.938 60.9112H169.996L171.442 38.7913L172.938 60.9112Z" fill="#111111"/>
<path fill-rule="evenodd" clip-rule="evenodd" d="M146.663 28.6677C146.663 28.6677 151.676 27.28 155.538 27.28C160.21 27.28 161.471 29.7345 161.471 33.3393V43.8165C161.471 46.9716 160.125 48.4236 158.679 48.9749C160.125 49.5261 161.92 50.6779 161.92 54.4335V66.6699C161.92 70.6258 160.176 73.4806 155.937 73.4806H146.663V28.6677ZM152.297 32.9334V46.7727H153.992C155.538 46.7727 155.938 45.7211 155.938 44.1689V34.6927C155.938 33.1405 155.485 32.3383 153.992 32.3383C152.867 32.3383 152.297 32.9334 152.297 32.9334ZM152.297 52.3315V68.2235H153.992C155.788 68.2235 156.186 67.372 156.186 65.7197V54.7352C156.186 53.183 155.788 52.3315 153.992 52.3315H152.297Z" fill="#111111"/>
<path d="M136.589 60.3605L133.461 30.6731L129.322 31.2778L126.317 60.3098L123.342 32.1266L117.676 32.8958L122.728 73.4814H128.96L131.353 47.6236L133.697 73.4814H139.73L145.402 28.8618L139.882 29.7092L136.589 60.3605Z" fill="#111111"/>
<path fill-rule="evenodd" clip-rule="evenodd" d="M116.294 65.1669C116.294 70.3746 114.549 73.9314 109.115 73.9314H108.167C102.783 73.9314 100.888 70.376 100.888 65.1669V42.2023C100.888 36.9946 102.783 33.6393 108.118 33.6393H109.065C114.549 33.6393 116.296 37.0453 116.296 42.153L116.294 65.1669ZM110.56 41.9021C110.56 39.9989 109.912 39.0473 108.616 39.0473C107.17 39.0473 106.622 39.9481 106.622 41.9021V65.5673C106.622 67.1702 107.071 68.422 108.665 68.422C110.211 68.422 110.56 67.1702 110.56 65.5673V41.9021Z" fill="#111111"/>
<path d="M92.6087 56.2047L87.7718 36.2225H82.6877V73.4815H87.7731V52.0473L93.1576 73.4815H97.7447V35.19L92.6087 35.626V56.2047Z" fill="#111111"/>
<path d="M79.3451 42.3312C79.3451 37.9228 77.5499 35.8702 72.9122 35.8702L71.8664 35.8715C67.4281 35.8715 64.9352 38.1258 64.9352 43.1333V44.3358C64.9352 48.0408 65.6329 50.4444 68.0261 53.5502L71.6166 58.1573C73.6604 60.8613 73.9102 61.7128 73.9102 64.4168V65.2683C73.9102 67.6212 73.4119 68.4727 72.0658 68.4727C70.8193 68.4727 70.2214 67.6212 70.2214 65.8688V59.3585L64.6363 61.4454V66.8204C64.6363 71.4276 66.979 73.882 71.517 73.882H72.6146C77.6004 73.882 79.8939 70.6268 79.8939 65.1682V63.9656C79.8939 59.7095 79.0966 57.857 76.5532 54.5511L72.9627 49.8932C71.0678 47.4388 70.6692 46.287 70.6692 44.1836V43.483C70.6692 41.7306 70.9681 40.8791 72.3142 40.8791C73.6603 40.8791 73.9102 41.8307 73.9102 43.0826V48.4411L79.3451 46.3542V42.3312Z" fill="#111111"/>
<path d="M56.721 64.3159C64.6579 49.7456 53.8903 31.7851 37.2962 31.9376C32.4653 31.9547 27.6674 33.6441 23.8809 36.6449C20.6622 39.179 18.1717 42.6386 16.7973 46.5C10.881 63.2663 26.3339 79.789 43.44 74.9588C49.0582 73.3867 53.9574 69.4558 56.721 64.3159ZM53.6297 63.9687C52.8412 65.2335 51.9026 66.406 50.8388 67.4488L50.8377 67.4499L50.8399 67.4522C42.2203 75.9594 27.9302 74.3509 21.4052 64.16C20.6691 63.0159 20.0558 61.7921 19.5802 60.5171C19.388 59.9752 20.0877 59.5722 20.4597 60.0185C22.4713 62.4273 25.1655 64.1736 28.1577 65.0354C29.9816 65.4725 30.7177 62.8815 28.9246 62.293C20.5963 60.023 16.7734 49.4507 22.1049 42.5384C22.7011 41.7392 23.3519 40.9776 24.0664 40.281L24.0675 40.2798L24.0653 40.2775C32.6917 31.768 46.9807 33.3845 53.5 43.5698C54.2361 44.7139 54.8494 45.9376 55.325 47.2126C55.5172 47.7545 54.8175 48.1575 54.4455 47.7113C52.4339 45.3024 49.7397 43.5561 46.7475 42.6943C45.9442 42.4633 45.1193 42.9915 44.9691 43.8134C44.8372 44.5351 45.2763 45.233 45.9806 45.4367C53.7378 47.5473 57.7165 56.9903 53.6297 63.9687Z" fill="#111111"/>
<path d="M202.608 67.7217V20.1884L196.974 20.9466V73.4806H209.489V67.7217H202.608Z" stroke="#111111" stroke-width="0.763828"/>
<path d="M187.446 22.3197V67.7222H194.327V73.4812H181.812V23.1685L187.446 22.3197Z" stroke="#111111" stroke-width="0.763828"/>
<path fill-rule="evenodd" clip-rule="evenodd" d="M169.398 66.47H173.536L174.285 73.4808H179.72L173.359 24.4735L169.56 25.0686L163.664 73.4808H168.7L169.398 66.47ZM172.938 60.9112H169.996L171.442 38.7913L172.938 60.9112Z" stroke="#111111" stroke-width="0.763828"/>
<path fill-rule="evenodd" clip-rule="evenodd" d="M146.663 28.6677C146.663 28.6677 151.676 27.28 155.538 27.28C160.21 27.28 161.471 29.7345 161.471 33.3393V43.8165C161.471 46.9716 160.125 48.4236 158.679 48.9749C160.125 49.5261 161.92 50.6779 161.92 54.4335V66.6699C161.92 70.6258 160.176 73.4806 155.937 73.4806H146.663V28.6677ZM152.297 32.9334V46.7727H153.992C155.538 46.7727 155.938 45.7211 155.938 44.1689V34.6927C155.938 33.1405 155.485 32.3383 153.992 32.3383C152.867 32.3383 152.297 32.9334 152.297 32.9334ZM152.297 52.3315V68.2235H153.992C155.788 68.2235 156.186 67.372 156.186 65.7197V54.7352C156.186 53.183 155.788 52.3315 153.992 52.3315H152.297Z" stroke="#111111" stroke-width="0.763828"/>
<path d="M136.589 60.3605L133.461 30.6731L129.322 31.2778L126.317 60.3098L123.342 32.1266L117.676 32.8958L122.728 73.4814H128.96L131.353 47.6236L133.697 73.4814H139.73L145.402 28.8618L139.882 29.7092L136.589 60.3605Z" stroke="#111111" stroke-width="0.763828"/>
<path fill-rule="evenodd" clip-rule="evenodd" d="M116.294 65.1669C116.294 70.3746 114.549 73.9314 109.115 73.9314H108.167C102.783 73.9314 100.888 70.376 100.888 65.1669V42.2023C100.888 36.9946 102.783 33.6393 108.118 33.6393H109.065C114.549 33.6393 116.296 37.0453 116.296 42.153L116.294 65.1669ZM110.56 41.9021C110.56 39.9989 109.912 39.0473 108.616 39.0473C107.17 39.0473 106.622 39.9481 106.622 41.9021V65.5673C106.622 67.1702 107.071 68.422 108.665 68.422C110.211 68.422 110.56 67.1702 110.56 65.5673V41.9021Z" stroke="#111111" stroke-width="0.763828"/>
<path d="M92.6087 56.2047L87.7718 36.2225H82.6877V73.4815H87.7731V52.0473L93.1576 73.4815H97.7447V35.19L92.6087 35.626V56.2047Z" stroke="#111111" stroke-width="0.763828"/>
<path d="M79.3451 42.3312C79.3451 37.9228 77.5499 35.8702 72.9122 35.8702L71.8664 35.8715C67.4281 35.8715 64.9352 38.1258 64.9352 43.1333V44.3358C64.9352 48.0408 65.6329 50.4444 68.0261 53.5502L71.6166 58.1573C73.6604 60.8613 73.9102 61.7128 73.9102 64.4168V65.2683C73.9102 67.6212 73.4119 68.4727 72.0658 68.4727C70.8193 68.4727 70.2214 67.6212 70.2214 65.8688V59.3585L64.6363 61.4454V66.8204C64.6363 71.4276 66.979 73.882 71.517 73.882H72.6146C77.6004 73.882 79.8939 70.6268 79.8939 65.1682V63.9656C79.8939 59.7095 79.0966 57.857 76.5532 54.5511L72.9627 49.8932C71.0678 47.4388 70.6692 46.287 70.6692 44.1836V43.483C70.6692 41.7306 70.9681 40.8791 72.3142 40.8791C73.6603 40.8791 73.9102 41.8307 73.9102 43.0826V48.4411L79.3451 46.3542V42.3312Z" stroke="#111111" stroke-width="0.763828"/>
<path d="M37.2962 31.9376C53.8903 31.7851 64.6579 49.7456 56.721 64.3159C53.9574 69.4558 49.0582 73.3867 43.44 74.9588C26.3339 79.789 10.881 63.2663 16.7973 46.5C18.1717 42.6386 20.6622 39.179 23.8809 36.6449C27.6674 33.6441 32.4653 31.9547 37.2962 31.9376Z" stroke="#111111" stroke-width="0.763828"/>
<path d="M56.721 64.3159C64.6579 49.7456 53.8903 31.7851 37.2962 31.9376C32.4653 31.9547 27.6674 33.6441 23.8809 36.6449C20.6622 39.179 18.1717 42.6386 16.7973 46.5C10.881 63.2663 26.3339 79.789 43.44 74.9588C49.0582 73.3867 53.9574 69.4558 56.721 64.3159ZM53.6297 63.9687C52.8412 65.2335 51.9026 66.406 50.8388 67.4488L50.8377 67.4499L50.8399 67.4522C42.2203 75.9594 27.9302 74.3509 21.4052 64.16C20.6691 63.0159 20.0558 61.7921 19.5802 60.5171C19.388 59.9752 20.0877 59.5722 20.4597 60.0185C22.4713 62.4273 25.1655 64.1736 28.1577 65.0354C29.9816 65.4725 30.7177 62.8815 28.9246 62.293C20.5963 60.023 16.7734 49.4507 22.1049 42.5384C22.7011 41.7392 23.3519 40.9776 24.0664 40.281L24.0675 40.2798L24.0653 40.2775C32.6917 31.768 46.9807 33.3845 53.5 43.5698C54.2361 44.7139 54.8494 45.9376 55.325 47.2126C55.5172 47.7545 54.8175 48.1575 54.4455 47.7113C52.4339 45.3024 49.7397 43.5561 46.7475 42.6943C45.9442 42.4633 45.1193 42.9915 44.9691 43.8134C44.8372 44.5351 45.2763 45.233 45.9806 45.4367C53.7378 47.5473 57.7165 56.9903 53.6297 63.9687Z" stroke="#111111" stroke-width="0.763828"/>
</svg>
